<mxfile host="app.diagrams.net" modified="2021-01-28T15:50:11.760Z" agent="5.0 (Windows NT 10.0; Win64; x64) AppleWebKit/537.36 (KHTML, like Gecko) Chrome/88.0.4324.104 Safari/537.36" etag="WahjiXQSnAnliYQxRptE" version="14.2.7" type="github">
  <diagram id="C5RBs43oDa-KdzZeNtuy" name="Page-1">
    <mxGraphModel dx="2062" dy="1160" grid="1" gridSize="10" guides="1" tooltips="1" connect="1" arrows="1" fold="1" page="1" pageScale="1" pageWidth="827" pageHeight="1169" math="0" shadow="0">
      <root>
        <mxCell id="WIyWlLk6GJQsqaUBKTNV-0" />
        <mxCell id="WIyWlLk6GJQsqaUBKTNV-1" parent="WIyWlLk6GJQsqaUBKTNV-0" />
        <mxCell id="kP_OdmLe6CQ_BfuAE4ah-0" value="Utente" style="shape=umlActor;verticalLabelPosition=bottom;verticalAlign=top;html=1;outlineConnect=0;" vertex="1" parent="WIyWlLk6GJQsqaUBKTNV-1">
          <mxGeometry x="170" y="210" width="30" height="60" as="geometry" />
        </mxCell>
        <mxCell id="kP_OdmLe6CQ_BfuAE4ah-3" value="Affitta posto" style="ellipse;whiteSpace=wrap;html=1;" vertex="1" parent="WIyWlLk6GJQsqaUBKTNV-1">
          <mxGeometry x="320" y="210" width="120" height="80" as="geometry" />
        </mxCell>
        <mxCell id="kP_OdmLe6CQ_BfuAE4ah-4" value="Pacheggia" style="ellipse;whiteSpace=wrap;html=1;" vertex="1" parent="WIyWlLk6GJQsqaUBKTNV-1">
          <mxGeometry x="320" y="100" width="120" height="80" as="geometry" />
        </mxCell>
        <mxCell id="kP_OdmLe6CQ_BfuAE4ah-5" value="Esci" style="ellipse;whiteSpace=wrap;html=1;" vertex="1" parent="WIyWlLk6GJQsqaUBKTNV-1">
          <mxGeometry x="320" y="320" width="120" height="80" as="geometry" />
        </mxCell>
        <mxCell id="kP_OdmLe6CQ_BfuAE4ah-6" value="Paga" style="ellipse;whiteSpace=wrap;html=1;" vertex="1" parent="WIyWlLk6GJQsqaUBKTNV-1">
          <mxGeometry x="550" y="260" width="120" height="80" as="geometry" />
        </mxCell>
        <mxCell id="kP_OdmLe6CQ_BfuAE4ah-7" value="" style="endArrow=classic;html=1;dashed=1;" edge="1" parent="WIyWlLk6GJQsqaUBKTNV-1" source="kP_OdmLe6CQ_BfuAE4ah-6" target="kP_OdmLe6CQ_BfuAE4ah-3">
          <mxGeometry width="50" height="50" relative="1" as="geometry">
            <mxPoint x="530" y="160" as="sourcePoint" />
            <mxPoint x="480" y="210" as="targetPoint" />
          </mxGeometry>
        </mxCell>
        <mxCell id="kP_OdmLe6CQ_BfuAE4ah-9" value="Include" style="edgeLabel;html=1;align=center;verticalAlign=middle;resizable=0;points=[];" vertex="1" connectable="0" parent="kP_OdmLe6CQ_BfuAE4ah-7">
          <mxGeometry x="0.2613" y="-1" relative="1" as="geometry">
            <mxPoint as="offset" />
          </mxGeometry>
        </mxCell>
        <mxCell id="kP_OdmLe6CQ_BfuAE4ah-8" value="" style="endArrow=classic;html=1;dashed=1;" edge="1" parent="WIyWlLk6GJQsqaUBKTNV-1" source="kP_OdmLe6CQ_BfuAE4ah-6" target="kP_OdmLe6CQ_BfuAE4ah-5">
          <mxGeometry width="50" height="50" relative="1" as="geometry">
            <mxPoint x="562.9562096311224" y="297.5991760067659" as="sourcePoint" />
            <mxPoint x="447.1009523814396" y="272.28334440763547" as="targetPoint" />
          </mxGeometry>
        </mxCell>
        <mxCell id="kP_OdmLe6CQ_BfuAE4ah-10" value="Include" style="edgeLabel;html=1;align=center;verticalAlign=middle;resizable=0;points=[];" vertex="1" connectable="0" parent="kP_OdmLe6CQ_BfuAE4ah-8">
          <mxGeometry x="-0.2227" y="-1" relative="1" as="geometry">
            <mxPoint y="-1" as="offset" />
          </mxGeometry>
        </mxCell>
        <mxCell id="kP_OdmLe6CQ_BfuAE4ah-11" value="" style="endArrow=none;html=1;" edge="1" parent="WIyWlLk6GJQsqaUBKTNV-1" source="kP_OdmLe6CQ_BfuAE4ah-0" target="kP_OdmLe6CQ_BfuAE4ah-4">
          <mxGeometry width="50" height="50" relative="1" as="geometry">
            <mxPoint x="200" y="420" as="sourcePoint" />
            <mxPoint x="250" y="370" as="targetPoint" />
          </mxGeometry>
        </mxCell>
        <mxCell id="kP_OdmLe6CQ_BfuAE4ah-12" value="" style="endArrow=none;html=1;" edge="1" parent="WIyWlLk6GJQsqaUBKTNV-1" source="kP_OdmLe6CQ_BfuAE4ah-0" target="kP_OdmLe6CQ_BfuAE4ah-5">
          <mxGeometry width="50" height="50" relative="1" as="geometry">
            <mxPoint x="210" y="242.30769230769238" as="sourcePoint" />
            <mxPoint x="342.4425606537279" y="174.38843043398583" as="targetPoint" />
          </mxGeometry>
        </mxCell>
        <mxCell id="kP_OdmLe6CQ_BfuAE4ah-13" value="" style="endArrow=none;html=1;" edge="1" parent="WIyWlLk6GJQsqaUBKTNV-1" source="kP_OdmLe6CQ_BfuAE4ah-0" target="kP_OdmLe6CQ_BfuAE4ah-3">
          <mxGeometry width="50" height="50" relative="1" as="geometry">
            <mxPoint x="220" y="252.30769230769238" as="sourcePoint" />
            <mxPoint x="352.4425606537279" y="184.38843043398583" as="targetPoint" />
          </mxGeometry>
        </mxCell>
        <mxCell id="kP_OdmLe6CQ_BfuAE4ah-14" value="Immetti info&amp;nbsp;&lt;br&gt;macchina" style="ellipse;whiteSpace=wrap;html=1;" vertex="1" parent="WIyWlLk6GJQsqaUBKTNV-1">
          <mxGeometry x="560" y="100" width="120" height="80" as="geometry" />
        </mxCell>
        <mxCell id="kP_OdmLe6CQ_BfuAE4ah-15" value="" style="endArrow=classic;html=1;dashed=1;" edge="1" parent="WIyWlLk6GJQsqaUBKTNV-1" source="kP_OdmLe6CQ_BfuAE4ah-14" target="kP_OdmLe6CQ_BfuAE4ah-4">
          <mxGeometry width="50" height="50" relative="1" as="geometry">
            <mxPoint x="460" y="50" as="sourcePoint" />
            <mxPoint x="562.9562096311224" y="297.5991760067659" as="targetPoint" />
          </mxGeometry>
        </mxCell>
        <mxCell id="kP_OdmLe6CQ_BfuAE4ah-16" value="Include" style="edgeLabel;html=1;align=center;verticalAlign=middle;resizable=0;points=[];" vertex="1" connectable="0" parent="kP_OdmLe6CQ_BfuAE4ah-15">
          <mxGeometry x="0.2613" y="-1" relative="1" as="geometry">
            <mxPoint as="offset" />
          </mxGeometry>
        </mxCell>
        <mxCell id="kP_OdmLe6CQ_BfuAE4ah-17" value="Admin" style="shape=umlActor;verticalLabelPosition=bottom;verticalAlign=top;html=1;outlineConnect=0;" vertex="1" parent="WIyWlLk6GJQsqaUBKTNV-1">
          <mxGeometry x="170" y="620" width="30" height="60" as="geometry" />
        </mxCell>
        <mxCell id="kP_OdmLe6CQ_BfuAE4ah-18" value="Cambia info&lt;br&gt;posto" style="ellipse;whiteSpace=wrap;html=1;" vertex="1" parent="WIyWlLk6GJQsqaUBKTNV-1">
          <mxGeometry x="280" y="520" width="120" height="80" as="geometry" />
        </mxCell>
        <mxCell id="kP_OdmLe6CQ_BfuAE4ah-19" value="Cambia info&lt;br&gt;livello" style="ellipse;whiteSpace=wrap;html=1;" vertex="1" parent="WIyWlLk6GJQsqaUBKTNV-1">
          <mxGeometry x="280" y="720" width="120" height="80" as="geometry" />
        </mxCell>
        <mxCell id="kP_OdmLe6CQ_BfuAE4ah-20" value="" style="endArrow=none;html=1;" edge="1" parent="WIyWlLk6GJQsqaUBKTNV-1" source="kP_OdmLe6CQ_BfuAE4ah-18" target="kP_OdmLe6CQ_BfuAE4ah-17">
          <mxGeometry width="50" height="50" relative="1" as="geometry">
            <mxPoint x="-40" y="480" as="sourcePoint" />
            <mxPoint x="10" y="430" as="targetPoint" />
          </mxGeometry>
        </mxCell>
        <mxCell id="kP_OdmLe6CQ_BfuAE4ah-21" value="" style="endArrow=none;html=1;" edge="1" parent="WIyWlLk6GJQsqaUBKTNV-1" source="kP_OdmLe6CQ_BfuAE4ah-19" target="kP_OdmLe6CQ_BfuAE4ah-17">
          <mxGeometry width="50" height="50" relative="1" as="geometry">
            <mxPoint x="304.6853646579689" y="596.2177533050324" as="sourcePoint" />
            <mxPoint x="210" y="651.2903225806451" as="targetPoint" />
          </mxGeometry>
        </mxCell>
        <mxCell id="kP_OdmLe6CQ_BfuAE4ah-22" value="" style="endArrow=classic;html=1;dashed=1;" edge="1" parent="WIyWlLk6GJQsqaUBKTNV-1" source="kP_OdmLe6CQ_BfuAE4ah-18" target="kP_OdmLe6CQ_BfuAE4ah-19">
          <mxGeometry width="50" height="50" relative="1" as="geometry">
            <mxPoint x="510.00095238143956" y="594.6833444076354" as="sourcePoint" />
            <mxPoint x="390" y="710" as="targetPoint" />
          </mxGeometry>
        </mxCell>
        <mxCell id="kP_OdmLe6CQ_BfuAE4ah-23" value="Extend" style="edgeLabel;html=1;align=center;verticalAlign=middle;resizable=0;points=[];" vertex="1" connectable="0" parent="kP_OdmLe6CQ_BfuAE4ah-22">
          <mxGeometry x="0.2613" y="-1" relative="1" as="geometry">
            <mxPoint as="offset" />
          </mxGeometry>
        </mxCell>
      </root>
    </mxGraphModel>
  </diagram>
</mxfile>
